<svg width="50" height="50" viewBox="0 0 50 50" fill="none" xmlns="http://www.w3.org/2000/svg">
<rect width="5" height="50" fill="white"/>
<rect x="45" width="5" height="50" fill="white"/>
<rect x="46.3552" width="5" height="65.0117" transform="rotate(45 46.3552 0)" fill="white"/>
<path d="M50 45L49.9998 50L1.16346e-06 50L1.38202e-06 45L50 45Z" fill="white"/>
<path d="M50 0L49.9998 5L1.16346e-06 5L1.38202e-06 -1.17592e-08L50 0Z" fill="white"/>
<path d="M16 22L15.9999 27L3.42257e-07 27L5.60814e-07 22L16 22Z" fill="white"/>
<path d="M50 22L49.9999 27L34 27L34 22L50 22Z" fill="white"/>
</svg>
